<svg xmlns="http://www.w3.org/2000/svg" width="805" height="600"><rect width="805" height="600" x="0" y="0" fill="#FFFFFF" id="backgorund"/><g id="viz"><clipPath id="serieClipPath"><rect x="-50" y="-10" width="805" height="600"/></clipPath><g transform="translate(0,0)"><g transform="translate(50,10)" clip-path="url(#serieClipPath)"><g id="axis"><g transform="translate(0,570)" fill="none" font-size="10" font-family="sans-serif" text-anchor="middle"><path class="domain" stroke="currentColor" d="M0.5,6V0.5H740.5V6"/><g class="tick" opacity="1" transform="translate(0.5,0)"><line stroke="currentColor" y2="6"/><text fill="currentColor" y="9" dy="0.71em">Fri 07</text></g><g class="tick" opacity="1" transform="translate(51.53448275862069,0)"><line stroke="currentColor" y2="6"/><text fill="currentColor" y="9" dy="0.71em">Oct 09</text></g><g class="tick" opacity="1" transform="translate(102.56896551724138,0)"><line stroke="currentColor" y2="6"/><text fill="currentColor" y="9" dy="0.71em">Tue 11</text></g><g class="tick" opacity="1" transform="translate(153.60344827586206,0)"><line stroke="currentColor" y2="6"/><text fill="currentColor" y="9" dy="0.71em">Thu 13</text></g><g class="tick" opacity="1" transform="translate(204.63793103448276,0)"><line stroke="currentColor" y2="6"/><text fill="currentColor" y="9" dy="0.71em">Sat 15</text></g><g class="tick" opacity="1" transform="translate(255.67241379310346,0)"><line stroke="currentColor" y2="6"/><text fill="currentColor" y="9" dy="0.71em">Mon 17</text></g><g class="tick" opacity="1" transform="translate(306.7068965517241,0)"><line stroke="currentColor" y2="6"/><text fill="currentColor" y="9" dy="0.71em">Wed 19</text></g><g class="tick" opacity="1" transform="translate(357.7413793103448,0)"><line stroke="currentColor" y2="6"/><text fill="currentColor" y="9" dy="0.71em">Fri 21</text></g><g class="tick" opacity="1" transform="translate(408.7758620689655,0)"><line stroke="currentColor" y2="6"/><text fill="currentColor" y="9" dy="0.71em">Oct 23</text></g><g class="tick" opacity="1" transform="translate(459.8103448275862,0)"><line stroke="currentColor" y2="6"/><text fill="currentColor" y="9" dy="0.71em">Tue 25</text></g><g class="tick" opacity="1" transform="translate(510.8448275862069,0)"><line stroke="currentColor" y2="6"/><text fill="currentColor" y="9" dy="0.71em">Thu 27</text></g><g class="tick" opacity="1" transform="translate(561.8793103448276,0)"><line stroke="currentColor" y2="6"/><text fill="currentColor" y="9" dy="0.71em">Sat 29</text></g><g class="tick" opacity="1" transform="translate(612.9137931034483,0)"><line stroke="currentColor" y2="6"/><text fill="currentColor" y="9" dy="0.71em">Mon 31</text></g><g class="tick" opacity="1" transform="translate(638.4310344827586,0)"><line stroke="currentColor" y2="6"/><text fill="currentColor" y="9" dy="0.71em">November</text></g><g class="tick" opacity="1" transform="translate(689.4655172413793,0)"><line stroke="currentColor" y2="6"/><text fill="currentColor" y="9" dy="0.71em">Thu 03</text></g><g class="tick" opacity="1" transform="translate(740.5,0)"><line stroke="currentColor" y2="6"/><text fill="currentColor" y="9" dy="0.71em">Sat 05</text></g><text x="740" dy="-5" text-anchor="end" style="font-family: Arial, sans-serif; font-size: 12px; fill: rgb(123, 123, 123); font-weight: bold;">日期</text></g><g transform="translate(0,0)" fill="none" font-size="10" font-family="sans-serif" text-anchor="end"><path class="domain" stroke="currentColor" d="M0.5,570.5V0.5"/><g class="tick" opacity="1" transform="translate(0,570.5)"><line stroke="currentColor" x2="-6"/><text fill="currentColor" x="-9" dy="0.32em">100.5</text></g><g class="tick" opacity="1" transform="translate(0,529.7857142857143)"><line stroke="currentColor" x2="-6"/><text fill="currentColor" x="-9" dy="0.32em">101.0</text></g><g class="tick" opacity="1" transform="translate(0,489.0714285714286)"><line stroke="currentColor" x2="-6"/><text fill="currentColor" x="-9" dy="0.32em">101.5</text></g><g class="tick" opacity="1" transform="translate(0,448.35714285714283)"><line stroke="currentColor" x2="-6"/><text fill="currentColor" x="-9" dy="0.32em">102.0</text></g><g class="tick" opacity="1" transform="translate(0,407.64285714285717)"><line stroke="currentColor" x2="-6"/><text fill="currentColor" x="-9" dy="0.32em">102.5</text></g><g class="tick" opacity="1" transform="translate(0,366.9285714285714)"><line stroke="currentColor" x2="-6"/><text fill="currentColor" x="-9" dy="0.32em">103.0</text></g><g class="tick" opacity="1" transform="translate(0,326.2142857142857)"><line stroke="currentColor" x2="-6"/><text fill="currentColor" x="-9" dy="0.32em">103.5</text></g><g class="tick" opacity="1" transform="translate(0,285.5)"><line stroke="currentColor" x2="-6"/><text fill="currentColor" x="-9" dy="0.32em">104.0</text></g><g class="tick" opacity="1" transform="translate(0,244.7857142857143)"><line stroke="currentColor" x2="-6"/><text fill="currentColor" x="-9" dy="0.32em">104.5</text></g><g class="tick" opacity="1" transform="translate(0,204.07142857142856)"><line stroke="currentColor" x2="-6"/><text fill="currentColor" x="-9" dy="0.32em">105.0</text></g><g class="tick" opacity="1" transform="translate(0,163.35714285714286)"><line stroke="currentColor" x2="-6"/><text fill="currentColor" x="-9" dy="0.32em">105.5</text></g><g class="tick" opacity="1" transform="translate(0,122.64285714285715)"><line stroke="currentColor" x2="-6"/><text fill="currentColor" x="-9" dy="0.32em">106.0</text></g><g class="tick" opacity="1" transform="translate(0,81.92857142857146)"><line stroke="currentColor" x2="-6"/><text fill="currentColor" x="-9" dy="0.32em">106.5</text></g><g class="tick" opacity="1" transform="translate(0,41.214285714285694)"><line stroke="currentColor" x2="-6"/><text fill="currentColor" x="-9" dy="0.32em">107.0</text></g><g class="tick" opacity="1" transform="translate(0,0.5)"><line stroke="currentColor" x2="-6"/><text fill="currentColor" x="-9" dy="0.32em">107.5</text></g><text x="4" text-anchor="start" dominant-baseline="hanging" style="font-family: Arial, sans-serif; font-size: 12px; fill: rgb(123, 123, 123); font-weight: bold;">收盤</text></g></g><g id="viz"><g><path d="M0,0C51.03448275862069,0,51.03448275862069,285,102.06896551724138,285C114.82758620689656,285,114.82758620689656,366.4285714285714,127.58620689655173,366.4285714285714C140.3448275862069,366.4285714285714,140.3448275862069,325.7142857142857,153.10344827586206,325.7142857142857C165.86206896551724,325.7142857142857,165.86206896551724,203.57142857142856,178.6206896551724,203.57142857142856C216.89655172413794,203.57142857142856,216.89655172413794,203.57142857142856,255.17241379310346,203.57142857142856C267.9310344827586,203.57142857142856,267.9310344827586,325.7142857142857,280.6896551724138,325.7142857142857C293.44827586206895,325.7142857142857,293.44827586206895,366.4285714285714,306.2068965517241,366.4285714285714C318.9655172413793,366.4285714285714,318.9655172413793,407.14285714285717,331.7241379310345,407.14285714285717C344.48275862068965,407.14285714285717,344.48275862068965,325.7142857142857,357.2413793103448,325.7142857142857C395.51724137931035,325.7142857142857,395.51724137931035,366.4285714285714,433.7931034482758,366.4285714285714C446.55172413793105,366.4285714285714,446.55172413793105,325.7142857142857,459.3103448275862,325.7142857142857C472.0689655172414,325.7142857142857,472.0689655172414,285,484.8275862068965,285C497.58620689655174,285,497.58620689655174,285,510.3448275862069,285C523.1034482758621,285,523.1034482758621,285,535.8620689655172,285C574.1379310344828,285,574.1379310344828,407.14285714285717,612.4137931034483,407.14285714285717C625.1724137931035,407.14285714285717,625.1724137931035,488.5714285714286,637.9310344827586,488.5714285714286C650.6896551724137,488.5714285714286,650.6896551724137,447.85714285714283,663.448275862069,447.85714285714283C676.2068965517242,447.85714285714283,676.2068965517242,529.2857142857143,688.9655172413793,529.2857142857143C701.7241379310344,529.2857142857143,701.7241379310344,570,714.4827586206897,570" stroke="#1f77b4" fill="none"/><text font-family="sans-serif" font-size="10" class="labels" x="0" y="0" dx="0" dy="-4" text-anchor="middle"/></g></g></g><text y="4" x="4" style="font-family: Arial, sans-serif; font-size: 12px; fill: black; font-weight: bold; dominant-baseline: hanging;"/></g><g id="grid"><rect x="0" y="0" width="805" height="600" fill="none" stroke="#ccc"/></g></g></svg>